# xmcd
#
# Track frame offsets:
#	150
#	12687
#	25802
#	37657
#	49497
#	60105
#	73942
#	89457
#	102002
#	112932
#	124965
#	137742
#	153462
#	163975
#	178977
#	189965
#	203600
#	215134
#
# Disc length: 3049 seconds
#
# Revision: 4
# Processed by: cddbd v1.5.2PL0 Copyright (c) Steve Scherf et al.
# Submitted via: audiograbber 1.83.01
#
DISCID=010be712
DTITLE=Various Artist - Rhythm Revue  [CD2)
DYEAR=1996
DGENRE=Oldies
TTITLE0=Impressions - It's All Right
TTITLE1=Irma Thomas - Time Is On My Side
TTITLE2=Erma Franklin - Piece Of My Heart
TTITLE3=Bessie Banks - Go Now
TTITLE4=Betty Everett - You're No Good
TTITLE5=Barbara Mason - Yes I'm Ready
TTITLE6=Chuck Jackson - Any Day Now (My Wild Beautiful Bird)
TTITLE7=Betty Wright - Clean Up Woman
TTITLE8=Barbara Lynn - You'll Lose A Good Thing
TTITLE9=June Conquest - No One Else
TTITLE10=Barbara Acklin - Just Ain't No Love
TTITLE11=James Brown - Lost Someone
TTITLE12=Edwin Starr - Stop Her On Sight (S.O.S.)
TTITLE13=Theola Kilgore - The Love Of My Man
TTITLE14=Esquires - Get On Up
TTITLE15=Manhattans - Follow Your Heart
TTITLE16=Isley Brothers - Twist and Shout
TTITLE17=Sonics - This Broken Heart
EXTD=
EXTT0=
EXTT1=
EXTT2=
EXTT3=
EXTT4=
EXTT5=
EXTT6=
EXTT7=
EXTT8=
EXTT9=
EXTT10=
EXTT11=
EXTT12=
EXTT13=
EXTT14=
EXTT15=
EXTT16=
EXTT17=
PLAYORDER=
